<svg width="30" height="30" viewBox="0 0 30 30" fill="none" xmlns="http://www.w3.org/2000/svg">
<rect width="30" height="30" rx="15" fill="#F8EAEA"/>
<rect x="0.5" y="0.5" width="29" height="29" rx="14.5" stroke="white" stroke-opacity="0.2"/>
<path d="M22.0667 23C20.2148 23 18.3852 22.5963 16.5778 21.7889C14.7704 20.9815 13.1259 19.837 11.6444 18.3556C10.163 16.8741 9.01852 15.2296 8.21111 13.4222C7.4037 11.6148 7 9.78519 7 7.93333C7 7.66667 7.08889 7.44444 7.26667 7.26667C7.44444 7.08889 7.66667 7 7.93333 7H11.5333C11.7407 7 11.9259 7.07037 12.0889 7.21111C12.2519 7.35185 12.3481 7.51852 12.3778 7.71111L12.9556 10.8222C12.9852 11.0593 12.9778 11.2593 12.9333 11.4222C12.8889 11.5852 12.8074 11.7259 12.6889 11.8444L10.5333 14.0222C10.8296 14.5704 11.1815 15.1 11.5889 15.6111C11.9963 16.1222 12.4444 16.6148 12.9333 17.0889C13.3926 17.5481 13.8741 17.9741 14.3778 18.3667C14.8815 18.7593 15.4148 19.1185 15.9778 19.4444L18.0667 17.3556C18.2 17.2222 18.3741 17.1222 18.5889 17.0556C18.8037 16.9889 19.0148 16.9704 19.2222 17L22.2889 17.6222C22.4963 17.6815 22.6667 17.7889 22.8 17.9444C22.9333 18.1 23 18.2741 23 18.4667V22.0667C23 22.3333 22.9111 22.5556 22.7333 22.7333C22.5556 22.9111 22.3333 23 22.0667 23Z" fill="#983535"/>
</svg>
